<?xml version="1.0" encoding="UTF-8"?>
<svg id="Layer_2" data-name="Layer 2" xmlns="http://www.w3.org/2000/svg" viewBox="0 0 507.16 224.52">
  <defs>
    <style>
      .cls-1 {
        fill: #ed2024;
      }

      .cls-2 {
        fill: #fff;
      }

      .cls-3 {
        fill: #7ec684;
      }
    </style>
  </defs>
  <g id="Layer_1-2" data-name="Layer 1">
    <g>
      <path class="cls-2" d="M18.21,72.42l.07-.02.43-.08c-.18,0-.35,0-.51.1ZM20.82,71.44c-.52.15-.89.51-1.35.74h.07s5.16-1.16,5.16-1.16l1.76-.79c-1.89.48-3.85.7-5.64,1.21ZM36.31,54.96l-22.13,17.29c.29.05.68.06,1.12.03h0l4.13-1.4c.32-.31.64-.6,1.08-.65.62-.07,1.45.22,2.34.26l.63-.02c.07,0,.13-.01.2-.03.86-.16,1.32-.98,2.03-1.19.3-.09.84-.17,1.37-.24h.03s71.13-14.06,71.13-14.06h-61.95Z"/>
      <path class="cls-2" d="M101.73,83.06v-28.1h-1.04l-12.6,3.12-58.23,11.8-2.48.1c-.3.09-.61.18-.92.26l-1.76.79-5.16,1.14h-.07s-.08.05-.12.07c-.22.09-.43.08-.63.07l-.43.08-.07.02c-.21.15-.39.48-.53,1.23l1.29.71,1.6,1.49,2.3.8,4.01.11,2.75-.46,3.1-.34,21.09-1.49-20.06,2.29-3.78.8h-3.17c-.89.69-2.56.59-3.58.65-.03-.13-.05-.24-.03-.33l-1.35.13-1.64-.44-5.05.63.48-.64-.94.16c-.09.67-.48,1.25-.71,1.97l2.01,1.3,5.27,1.03,3.43-1.49,2.75-1.26-3.44,2.18-1.26.46.26.12c.72-.19,1.38-.5,1.82-.92.13.13-.31.84-.75,1.42-.2.26-.4.5-.55.65-.09.09-.16.15-.2.16-.29.09-3.88-.45-3.4-1.18l-2.2-.49v-.23h-.65v.08l-3.27-.73s0,.07,0,.11l1.6,1.7-.35,1.15-2.52-.35,1.83,3.1,6.88,6.65-8.26-7.56-1.93-.62-.14,1.32-1.45-.96-.53.53,1.41,2.48,18.57,23.39-15.7-18.46-3.33-4.12-.96-.05c-.36.49-.83.98-1.19,1.51l-.03.72-1.56-1.37c-1.11-.75-2.32-1.1-3.44-.25l-1.31,1.51-.86,4.11-.3,24.25h65.1l.48.48v9.85H.29c.48,2.98.02,5.9-.01,8.87-.05,5.3-.59,13.12,0,18.12.05.47.04.83.5,1.11h64.61l36.34-27.78v-37.14H36.47v-10.01h65.26ZM11.28,86.61c0-1.29,1.29-1.27,1.29,0h-1.29Z"/>
      <path class="cls-2" d="M444.33,94.04c-.07,0-.18.2-.29.41l2.48,2.25,3.89,1.14,21.32-2.29-22.46,3.43-4.12-.7-3.25.27.26-.77.06-.19h-.97s0,.02,0,.03c.07.28.07.56.02.84l6.67,3.15c.25-.03.49-.07.73-.15-.02.18-.05.33-.09.46l6.4,3.02-6.63-2.61c-.6.67-1.89-.05-2.91.1-.09-.86-.01-.53.48-.65.26-.06.51-.09.77-.11l-5.69-2.24c-.34,1.04-.72,2.03.55,2.84-.58,1.1-2.01-.16-2.59.29l-.45,1.74.42.24c.29-.28.75-.21,1.02.48l-.11.03,7.13,4.03-9.55-3.18c.08.34-.03.61-.24.88l-.76,4.37-2.53-3.44-.77-.4c-.55.03-1.1.16-1.58.3v-.97c-1.02.48-1.74.59-2.23-.26l-2.07,2.25v.94c.77-.36,1.8-.18,2.69-.66l-.19,1.33-2.5.21v2.55l1.6,2.29-.1.04.22.05v.64h-1.29v-.29l-.65.25-2.06-1.61-2.75,6.42s-4.53,14.53-6.68,21.73c1.95-7.31,5.76-22.19,5.76-22.19l2.09-9.14-1.43.24-12.04,9.28v71.54h34.57v-71.37h28.1v71.37h34.57v-98.18h-62.83ZM420.91,116c.4.38-1.74,2.11-1.62,2.74.14.73,1.79.53,2.26.17l-1.12,1.93c-.26-1.02-1.45-.97-1.8-1.41-1.08-1.33.79-3.58,2.29-3.43Z"/>
      <path class="cls-2" d="M105.44,134.09l-21.48,17.28v73.15h57.34l31.83-24.71v-65.72h-67.68ZM141.14,199.98h-25.52v-41.34h25.52v41.34Z"/>
      <polygon class="cls-3" points="338.53 122.46 338.53 182.38 307.35 213.22 269.39 213.22 269.39 218.07 260.67 218.07 260.67 201.27 256.79 201.27 256.79 218.07 217.22 218.07 178.61 179.47 178.61 133.45 193.15 133.45 193.15 165.58 213.66 185.77 256.79 185.77 256.79 176.4 260.67 176.4 260.67 185.77 291.2 185.77 312.36 164.61 312.36 138.93 320.11 138.93 320.11 122.95 320.59 122.46 338.53 122.46"/>
      <polygon class="cls-3" points="338.53 74.18 338.53 114.39 325.6 114.39 325.6 87.1 294.74 56.58 291.68 56.58 291.68 70.31 291.2 70.79 260.67 70.79 260.67 53.67 256.79 53.67 256.79 70.79 213.34 70.79 193.15 90.97 193.15 114.71 187.66 114.71 187.66 127.15 187.18 127.63 179.1 127.63 178.61 127.15 178.61 76.76 212.37 43.34 248.07 43.34 248.07 38.16 256.79 38.16 256.79 29.13 260.67 29.13 260.67 38.16 302.51 38.16 338.53 74.18"/>
      <polygon class="cls-2" points="172.15 63.2 172.15 127.8 171.67 128.28 149.38 128.28 148.89 127.8 148.89 105.02 130.48 105.02 130.48 128.28 107.54 128.28 107.54 62.72 130.48 62.72 130.48 86.94 148.89 86.94 148.89 63.2 149.38 62.72 171.67 62.72 172.15 63.2"/>
      <path class="cls-2" d="M425.75,82.1l1.58-.37.04-1.89-.96.64v-.81c-.14-.73.96-.73.96-.79v-26.49h-21.97v41.66c2.6.38,5.29.44,7.93.34.88-.04,1.34-.45,1.91-.52.26-.03,2.01,0,1.79.65-.3.93-11.44.78-11.64,1.67v1.25s3.14-.31,3.14-.31l.1-.36,9.01-1.16c.43-1.15.28-2.33.36-3.52-.49.03-3.72-1.49-4.45-1.85-.38-.19-.96-.18-1.04-.73l4,.94.5-.75-.63-.84h.95c-.23.93.98,1.72,1,1.82.06.45-.3.97-.33,1.4,1.91-.13,3.58-2.78,2.9-4.52,1.51.34.79-1.06,1.36-2.05.06-.11,1.43-1.82,1.58-1.97,1.37-1.46,1.17-.38,1.51-.19.58.32,1.23-.05,1.5.01.38.09-.03.77.52.64.44-2.03-.9-.75-1.62-1.93ZM418.64,89.84l-.67-2.39,1.31-1.16c-.31,1.29.77,2.41-.65,3.55ZM421.82,77.18c-.2-.77-.63-1.54-.85-2.45-.17-.73.55-2.07-1.25-2.26-.21,0-3.06,1.47-3.36,1.69-.33.24-.83.86-1.02,1.25-2.2,4.48,5.58,7.06,5.24,11.53-.67.14-.75-.32-1.03-.74-4.51-6.65-8.06-13.85-10.93-21.37-.28-.71-.65-1.7-.82-2.42-.07-.32-.42-1.06.18-.98.9,1.36,3.88,9.83,4.59,10.28.4.25,1.46-.19,1.88.55l-.96.64,1.29,2.1c.71-1.01,1.41-2.5,2.07-3.44.12-.18.47-.24.62-.44.14-.19-.01-.59.21-.8.84-.77,2.51-.42,3.57-.49.09.73-.18,1.73.05,2.39.14.41.73.42.84.6.07.11.57,2.26.59,2.48.06.59-.71.94-.71,1.47,0,.42.85,1.35.53,2.09-1.39.03-.52-.99-.69-1.68ZM422.52,81.12l-.32-1.6.96-.33c.34.94.4,1.48-.64,1.93ZM423.48,78.54h-.32l-.32-1.29c1.04,0,.94.46.64,1.29ZM421.03,99.62l-16.24,10.15-1.86-.81h-.01l-.44-.06s.02-.08.05-.11l-1.41-.61,15.55-8.34c.38-1.05,2.19-2.52,2.93-1.91.36-.4.07-.65-.48-.79l-30.15,3.93-44.96-1.67v15.64h25.36l13.41-10.34v10.34l22.92-.18,14.55-11.13-.16-.65c-.69-.03-2.33,1-2.09-.32.92.36,2.59-2.2,3.06-2.21l1.78.92c-.01-1.41-.98-1.4-1.8-1.85ZM396.68,97.92v-1.94c-7.37.34-14.64-.87-21.97-.97v2.91s-8.72,0-8.72,0v-45.54h-21.97v46.82l45.88-.21,10.79-1.08h-4.01Z"/>
      <polygon class="cls-2" points="404.43 122.79 404.43 155.89 388.76 168 372.12 168 372.12 160.9 362.92 168 344.02 168 344.02 122.79 360.17 122.79 360.17 155.73 366.3 155.73 366.3 122.79 382.46 122.79 382.46 155.73 388.6 155.73 388.6 122.79 404.43 122.79"/>
      <path class="cls-2" d="M396.68,52.38v41.99c-1.28.28-2.6-.29-3.74-.33-5.31-.17-12.05.62-17.12.02-.47-.05-.83-.04-1.11-.5v-41.18h21.97Z"/>
      <polygon class="cls-1" points="281.35 121.49 281.35 127.96 271 127.96 271 133.12 267.46 133.12 267.46 148.62 257.44 148.62 257.44 144.42 255.18 144.43 255.18 133.12 240.32 133.12 240.32 126.02 246.78 126.02 246.78 121.49 255.18 121.49 255.18 106.31 267.46 106.31 267.46 121.49 281.35 121.49"/>
      <path class="cls-2" d="M425.92,88.23c-.3-.2-.34-.68-.59-.87-.27-.2-.86-.14-1.04-.4-.57-.79.2-2.78,1.31-2.93.58.14,1.7,4.57.33,4.2Z"/>
      <path class="cls-2" d="M421.87,101.96c0,.22-.77.67-.96.48-.48-.49.96-1.38.96-.48Z"/>
      <g>
        <path class="cls-2" d="M155.63,15.18V2.86h-4.86V0h13.22v2.86h-4.86v12.31h-3.51Z"/>
        <path class="cls-2" d="M187.13,15.18V0h6.48c2.11,0,3.75.49,4.92,1.47s1.76,2.33,1.76,4.03c0,1.13-.27,2.1-.81,2.92-.54.82-1.3,1.44-2.29,1.88l3.38,4.88h-3.77l-2.93-4.23h-3.23v4.23h-3.51ZM190.64,8.15h2.86c1.07,0,1.88-.23,2.42-.7.54-.47.81-1.12.81-1.94s-.27-1.49-.81-1.95c-.54-.46-1.35-.69-2.42-.69h-2.86v5.29Z"/>
        <path class="cls-2" d="M224.31,15.18V0h3.51v15.18h-3.51Z"/>
        <path class="cls-2" d="M252.67,15.18V0h2.91l7.54,9.24V0h3.47v15.18h-2.88l-7.57-9.24v9.24h-3.47Z"/>
        <path class="cls-2" d="M291.43,15.18V0h3.51v15.18h-3.51Z"/>
        <path class="cls-2" d="M322.93,15.18V2.86h-4.86V0h13.22v2.86h-4.86v12.31h-3.51Z"/>
        <path class="cls-2" d="M357.92,15.18v-5.4l-5.88-9.78h3.73l4.03,6.74,4.08-6.74h3.45l-5.9,9.8v5.38h-3.51Z"/>
      </g>
    </g>
  </g>
</svg>